<svg width="32" height="14" viewBox="0 0 32 14" fill="none" xmlns="http://www.w3.org/2000/svg">
<path d="M6.624 11C8.672 11 9.984 9.896 9.984 8.04C9.984 6.664 9.136 5.688 7.488 5.416V5.32C8.96 5.096 9.648 4.168 9.648 2.936C9.648 1.24 8.384 0.28 6.464 0.28H0.832V11H6.624ZM1.968 1.32H6.368C7.824 1.32 8.512 1.896 8.512 3.144C8.512 4.376 7.728 4.952 6.272 4.952H1.968V1.32ZM1.968 5.928H6.528C8.016 5.928 8.832 6.552 8.832 7.928C8.832 9.336 8.048 9.96 6.528 9.96H1.968V5.928ZM12.1666 11V0.28H11.0306V11H12.1666ZM17.6295 11.16C20.2215 11.16 21.9335 9.448 21.9335 7.048C21.9335 4.648 20.2215 2.936 17.6295 2.936C15.0535 2.936 13.3415 4.648 13.3415 7.048C13.3415 9.448 15.0535 11.16 17.6295 11.16ZM17.6295 10.136C15.4535 10.136 14.4615 8.968 14.4615 7.048C14.4615 5.144 15.4535 3.96 17.6295 3.96C19.8055 3.96 20.8135 5.144 20.8135 7.048C20.8135 8.968 19.8055 10.136 17.6295 10.136ZM26.517 10.36C28.341 10.36 29.509 9.464 29.829 8.248H29.909V10.312C29.909 12.28 29.109 12.904 27.061 12.904C25.301 12.904 24.373 12.36 24.373 10.968H23.237C23.237 12.808 24.869 13.88 27.013 13.88C29.397 13.88 31.045 12.856 31.045 10.248V3.096H30.021V5.128H29.941C29.621 3.72 28.309 2.936 26.645 2.936C24.213 2.936 22.725 4.488 22.725 6.648C22.725 8.808 24.165 10.36 26.517 10.36ZM23.861 6.648C23.861 4.632 25.125 3.944 26.901 3.944C28.725 3.944 29.909 4.872 29.909 6.424V6.696C29.909 8.376 28.773 9.352 26.821 9.352C25.109 9.352 23.861 8.664 23.861 6.648Z" fill="white"/>
</svg>
