<svg width="143" height="12" viewBox="0 0 143 12" fill="none" xmlns="http://www.w3.org/2000/svg">
<path d="M5.728 11V1.32H10.128V0.28H0.176V1.32H4.592V11H5.728ZM14.6969 11.16C16.9049 11.16 18.5369 10.024 18.5369 8.376V8.264H17.4009V8.376C17.4009 9.528 16.5369 10.216 14.6809 10.216C12.5849 10.216 11.6729 9.144 11.6089 7.368H18.5689C18.6169 7.16 18.6489 6.92 18.6489 6.632C18.6489 4.28 17.0009 2.936 14.6809 2.936C12.1369 2.936 10.5369 4.648 10.5369 7.048C10.5369 9.56 12.1529 11.16 14.6969 11.16ZM14.6649 3.88C16.5209 3.88 17.5769 4.76 17.5769 6.424C17.5769 6.504 17.5769 6.584 17.5769 6.664H11.6089C11.6889 4.936 12.6169 3.88 14.6649 3.88ZM20.9716 11V6.712C20.9716 4.936 21.6756 3.928 23.2756 3.928C24.6516 3.928 25.2116 4.584 25.2116 5.928V6.536H26.3476V5.752C26.3476 4.28 25.5476 2.936 23.7236 2.936C22.0756 2.936 21.1796 3.992 20.9396 5.256H20.8596V3.096H19.8356V11H20.9716ZM28.4798 11V7.176C28.4798 5.08 29.2318 3.976 31.1518 3.976C32.8158 3.976 33.5518 4.792 33.5518 6.552V11H34.6878V7.176C34.6878 5.08 35.4558 3.976 37.3598 3.976C39.0238 3.976 39.7758 4.792 39.7758 6.552V11H40.9118V6.392C40.9118 4.392 39.8398 2.936 37.7758 2.936C35.7918 2.936 34.8478 4.2 34.6238 5.56H34.5438C34.2878 4.024 33.2958 2.936 31.5358 2.936C29.5678 2.936 28.6558 4.152 28.4318 5.48H28.3678V3.096H27.3438V11H28.4798ZM45.9176 11.16C47.9656 11.16 49.4376 10.376 49.4376 8.888C49.4376 7.608 48.5256 7.032 46.8296 6.792L44.8936 6.52C43.5816 6.328 43.1656 6.04 43.1656 5.224C43.1656 4.28 43.8536 3.88 45.5176 3.88C47.5336 3.88 48.1576 4.52 48.1576 5.704V5.784H49.2936V5.752C49.2936 3.896 47.8216 2.936 45.5496 2.936C43.3736 2.936 42.0456 3.816 42.0456 5.208C42.0456 6.52 42.9576 7.08 44.3976 7.272L46.5096 7.576C47.8216 7.784 48.3176 8.056 48.3176 8.888C48.3176 9.8 47.7096 10.216 45.9336 10.216C43.9976 10.216 43.2136 9.752 43.2136 8.424V8.328H42.0776V8.36C42.0776 10.184 43.4856 11.16 45.9176 11.16ZM56.7635 11.16C59.8195 11.16 61.3875 9.752 61.3875 7.384V5.896H63.2115V4.92H61.3875V3.096H60.2675V4.92H56.4595C54.8595 4.92 53.9315 4.376 53.9315 3.096C53.9315 1.816 54.6195 1.272 56.3635 1.272H58.9555V0.216H56.4755C54.1715 0.216 52.7955 1.16 52.7955 2.936C52.7955 4.104 53.4995 5.032 54.8435 5.272V5.384C53.3395 5.656 52.4755 6.632 52.4755 8.104C52.4755 10.104 54.0915 11.16 56.7635 11.16ZM56.7955 10.12C54.5075 10.12 53.6115 9.464 53.6115 8.008C53.6115 6.552 54.5715 5.896 56.1875 5.896H60.2675V7.432C60.2675 9.336 59.3075 10.12 56.7955 10.12ZM71.2659 11.16C74.0499 11.16 76.1299 9.608 76.1299 7.176V6.984H74.8979V7.176C74.8979 9 73.6339 10.056 71.2819 10.056C68.6099 10.056 67.1219 8.552 67.1219 5.64C67.1219 2.728 68.6099 1.224 71.2819 1.224C73.6339 1.224 74.8979 2.28 74.8979 4.104V4.296H76.1299V4.104C76.1299 1.672 74.0339 0.12 71.2659 0.12C68.1299 0.12 65.9219 2.296 65.9219 5.64C65.9219 8.984 68.1299 11.16 71.2659 11.16ZM81.202 11.16C83.794 11.16 85.506 9.448 85.506 7.048C85.506 4.648 83.794 2.936 81.202 2.936C78.626 2.936 76.914 4.648 76.914 7.048C76.914 9.448 78.626 11.16 81.202 11.16ZM81.202 10.136C79.026 10.136 78.034 8.968 78.034 7.048C78.034 5.144 79.026 3.96 81.202 3.96C83.378 3.96 84.386 5.144 84.386 7.048C84.386 8.968 83.378 10.136 81.202 10.136ZM87.8335 11V7.176C87.8335 5.144 88.8415 3.976 90.7615 3.976C92.5695 3.976 93.3535 4.92 93.3535 6.552V11H94.4895V6.392C94.4895 4.52 93.3855 2.936 91.1615 2.936C89.1935 2.936 88.0735 4.232 87.8015 5.576H87.7215V3.096H86.6975V11H87.8335ZM99.4261 11.16C101.17 11.16 102.45 10.248 102.834 8.664H102.898V11H103.938V0.28H102.802V5.304H102.722C102.37 3.944 101.202 2.936 99.3301 2.936C96.8981 2.936 95.4901 4.648 95.4901 7.048C95.4901 9.448 96.8981 11.16 99.4261 11.16ZM96.6421 7.048C96.6421 4.76 97.8741 3.992 99.6821 3.992C101.634 3.992 102.802 5.08 102.802 7.032V7.176C102.802 9.048 101.57 10.12 99.7141 10.12C97.8581 10.12 96.6421 9.336 96.6421 7.048ZM106.662 2.088V0.28H105.526V2.088H106.662ZM106.662 11V3.096H105.526V11H106.662ZM113.101 11V9.96H111.661C110.509 9.96 109.965 9.656 109.965 8.552V4.072H113.101V3.096H109.965V1.208H108.813V3.096H107.405V4.072H108.813V8.488C108.813 10.344 109.821 11 111.389 11H113.101ZM115.163 2.088V0.28H114.027V2.088H115.163ZM115.163 11V3.096H114.027V11H115.163ZM120.626 11.16C123.218 11.16 124.93 9.448 124.93 7.048C124.93 4.648 123.218 2.936 120.626 2.936C118.05 2.936 116.338 4.648 116.338 7.048C116.338 9.448 118.05 11.16 120.626 11.16ZM120.626 10.136C118.45 10.136 117.458 8.968 117.458 7.048C117.458 5.144 118.45 3.96 120.626 3.96C122.802 3.96 123.81 5.144 123.81 7.048C123.81 8.968 122.802 10.136 120.626 10.136ZM127.257 11V7.176C127.257 5.144 128.265 3.976 130.185 3.976C131.993 3.976 132.777 4.92 132.777 6.552V11H133.913V6.392C133.913 4.52 132.809 2.936 130.585 2.936C128.617 2.936 127.497 4.232 127.225 5.576H127.145V3.096H126.121V11H127.257ZM138.914 11.16C140.962 11.16 142.434 10.376 142.434 8.888C142.434 7.608 141.522 7.032 139.826 6.792L137.89 6.52C136.578 6.328 136.162 6.04 136.162 5.224C136.162 4.28 136.85 3.88 138.514 3.88C140.53 3.88 141.154 4.52 141.154 5.704V5.784H142.29V5.752C142.29 3.896 140.818 2.936 138.546 2.936C136.37 2.936 135.042 3.816 135.042 5.208C135.042 6.52 135.954 7.08 137.394 7.272L139.506 7.576C140.818 7.784 141.314 8.056 141.314 8.888C141.314 9.8 140.706 10.216 138.93 10.216C136.994 10.216 136.21 9.752 136.21 8.424V8.328H135.074V8.36C135.074 10.184 136.482 11.16 138.914 11.16Z" fill="white"/>
</svg>
