<svg width="109" height="14" viewBox="0 0 109 14" fill="none" xmlns="http://www.w3.org/2000/svg">
<path d="M2.096 11V6.12H8.992V11H10.128V0.28H8.992V5.08H2.096V0.28H0.96V11H2.096ZM15.4938 11.16C17.7018 11.16 19.3338 10.024 19.3338 8.376V8.264H18.1978V8.376C18.1978 9.528 17.3338 10.216 15.4778 10.216C13.3818 10.216 12.4698 9.144 12.4058 7.368H19.3658C19.4138 7.16 19.4458 6.92 19.4458 6.632C19.4458 4.28 17.7978 2.936 15.4778 2.936C12.9338 2.936 11.3338 4.648 11.3338 7.048C11.3338 9.56 12.9498 11.16 15.4938 11.16ZM15.4618 3.88C17.3178 3.88 18.3738 4.76 18.3738 6.424C18.3738 6.504 18.3738 6.584 18.3738 6.664H12.4058C12.4858 4.936 13.4138 3.88 15.4618 3.88ZM21.7685 11V0.28H20.6325V11H21.7685ZM24.4954 13.72V8.68H24.5114C24.8794 10.2 26.1434 11.16 27.8874 11.16C30.3994 11.16 31.7914 9.448 31.7914 7.048C31.7914 4.648 30.3834 2.936 27.9194 2.936C26.0474 2.936 24.8634 3.896 24.5114 5.32H24.3834V3.096H23.3594V13.72H24.4954ZM24.4954 7.192V7.048C24.4954 5.096 25.6474 3.992 27.6154 3.992C29.4074 3.992 30.6394 4.76 30.6394 7.048C30.6394 9.336 29.4234 10.12 27.5834 10.12C25.7274 10.12 24.4954 9.064 24.4954 7.192ZM39.021 11.16C42.077 11.16 43.645 9.752 43.645 7.384V5.896H45.469V4.92H43.645V3.096H42.525V4.92H38.717C37.117 4.92 36.189 4.376 36.189 3.096C36.189 1.816 36.877 1.272 38.621 1.272H41.213V0.216H38.733C36.429 0.216 35.053 1.16 35.053 2.936C35.053 4.104 35.757 5.032 37.101 5.272V5.384C35.597 5.656 34.733 6.632 34.733 8.104C34.733 10.104 36.349 11.16 39.021 11.16ZM39.053 10.12C36.765 10.12 35.869 9.464 35.869 8.008C35.869 6.552 36.829 5.896 38.445 5.896H42.525V7.432C42.525 9.336 41.565 10.12 39.053 10.12ZM52.7394 11.16C55.7154 11.16 57.0114 9.72 57.0114 8.184C57.0114 6.52 55.7794 5.704 53.8594 5.336L51.6034 4.888C50.0194 4.552 49.3154 4.184 49.3154 2.968C49.3154 1.8 50.2754 1.192 52.4034 1.192C54.7394 1.192 55.6994 2.024 55.6994 3.576V3.768H56.8514V3.672C56.8514 1.72 55.5074 0.12 52.4834 0.12C49.4114 0.12 48.1634 1.592 48.1634 3.048C48.1634 4.824 49.5554 5.56 51.2994 5.896L53.5714 6.328C55.1394 6.648 55.8594 7.08 55.8594 8.28C55.8594 9.496 54.8834 10.088 52.7394 10.088C50.2274 10.088 49.2674 9.256 49.2674 7.72V7.512H48.1154V7.608C48.1154 9.656 49.5874 11.16 52.7394 11.16ZM61.4776 11.16C63.4456 11.16 64.5816 9.88 64.8536 8.536H64.9336V11H65.9576V3.096H64.8216V6.936C64.8216 8.968 63.8136 10.136 61.8776 10.136C60.0536 10.136 59.2536 9.192 59.2536 7.544V3.096H58.1176V7.72C58.1176 9.592 59.2216 11.16 61.4776 11.16ZM68.6848 13.72V8.68H68.7008C69.0688 10.2 70.3328 11.16 72.0768 11.16C74.5888 11.16 75.9808 9.448 75.9808 7.048C75.9808 4.648 74.5728 2.936 72.1088 2.936C70.2368 2.936 69.0528 3.896 68.7008 5.32H68.5728V3.096H67.5488V13.72H68.6848ZM68.6848 7.192V7.048C68.6848 5.096 69.8368 3.992 71.8048 3.992C73.5968 3.992 74.8288 4.76 74.8288 7.048C74.8288 9.336 73.6128 10.12 71.7728 10.12C69.9168 10.12 68.6848 9.064 68.6848 7.192ZM78.1929 13.72V8.68H78.2089C78.5769 10.2 79.8409 11.16 81.5849 11.16C84.0969 11.16 85.4889 9.448 85.4889 7.048C85.4889 4.648 84.0809 2.936 81.6169 2.936C79.7449 2.936 78.5609 3.896 78.2089 5.32H78.0809V3.096H77.0569V13.72H78.1929ZM78.1929 7.192V7.048C78.1929 5.096 79.3449 3.992 81.3129 3.992C83.1049 3.992 84.3369 4.76 84.3369 7.048C84.3369 9.336 83.1209 10.12 81.2809 10.12C79.4249 10.12 78.1929 9.064 78.1929 7.192ZM90.437 11.16C93.029 11.16 94.741 9.448 94.741 7.048C94.741 4.648 93.029 2.936 90.437 2.936C87.861 2.936 86.149 4.648 86.149 7.048C86.149 9.448 87.861 11.16 90.437 11.16ZM90.437 10.136C88.261 10.136 87.269 8.968 87.269 7.048C87.269 5.144 88.261 3.96 90.437 3.96C92.613 3.96 93.621 5.144 93.621 7.048C93.621 8.968 92.613 10.136 90.437 10.136ZM97.0685 11V6.712C97.0685 4.936 97.7725 3.928 99.3725 3.928C100.749 3.928 101.309 4.584 101.309 5.928V6.536H102.445V5.752C102.445 4.28 101.645 2.936 99.8205 2.936C98.1725 2.936 97.2765 3.992 97.0365 5.256H96.9565V3.096H95.9325V11H97.0685ZM108.289 11V9.96H106.849C105.697 9.96 105.153 9.656 105.153 8.552V4.072H108.289V3.096H105.153V1.208H104.001V3.096H102.593V4.072H104.001V8.488C104.001 10.344 105.009 11 106.577 11H108.289Z" fill="white"/>
</svg>
