<svg width="101" height="14" viewBox="0 0 101 14" fill="none" xmlns="http://www.w3.org/2000/svg">
<path d="M2.096 11V7.528H5.888C8.208 7.528 9.84 6.2 9.84 3.896C9.84 1.608 8.208 0.28 5.888 0.28H0.96V11H2.096ZM5.792 1.32C7.68 1.32 8.688 2.104 8.688 3.896C8.688 5.72 7.68 6.488 5.792 6.488H2.096V1.32H5.792ZM11.8854 11V6.712C11.8854 4.936 12.5894 3.928 14.1894 3.928C15.5654 3.928 16.1254 4.584 16.1254 5.928V6.536H17.2614V5.752C17.2614 4.28 16.4614 2.936 14.6374 2.936C12.9894 2.936 12.0934 3.992 11.8534 5.256H11.7734V3.096H10.7494V11H11.8854ZM19.3935 2.088V0.28H18.2575V2.088H19.3935ZM19.3935 11V3.096H18.2575V11H19.3935ZM25.3524 11L29.1284 3.096H27.8964L24.7124 9.88H24.6164L21.4164 3.096H20.1844L23.9604 11H25.3524ZM32.122 11.16C33.962 11.16 35.354 10.328 35.818 8.872H35.898V11H36.922V6.056C36.922 4.312 35.898 2.936 33.498 2.936C31.066 2.936 29.69 4.296 29.69 5.96V6.024H30.826V5.96C30.826 4.568 31.722 3.96 33.418 3.96C35.146 3.96 35.818 4.568 35.818 6.104V6.712L32.058 7.128C30.586 7.288 29.514 7.848 29.514 9.144C29.514 10.424 30.57 11.16 32.122 11.16ZM30.65 9.064C30.65 8.248 31.226 7.96 32.41 7.848L35.818 7.464V7.528C35.818 9.432 34.298 10.28 32.378 10.28C31.178 10.28 30.65 9.864 30.65 9.064ZM42.2454 11.16C44.4534 11.16 46.1814 9.848 46.1814 7.944V7.816H45.0614V7.912C45.0614 9.32 44.0374 10.12 42.2294 10.12C40.1174 10.12 39.2054 8.984 39.2054 7.048C39.2054 5.112 40.1174 3.976 42.2294 3.976C44.0374 3.976 45.0614 4.776 45.0614 6.184V6.28H46.1814V6.152C46.1814 4.248 44.4534 2.936 42.2454 2.936C39.7174 2.936 38.0694 4.648 38.0694 7.048C38.0694 9.448 39.7174 11.16 42.2454 11.16ZM48.4238 13.72C49.7358 13.72 50.4718 13.32 51.0478 12.104L55.3358 3.096H54.0878L51.8958 7.784L51.0478 9.736H50.9518L50.0718 7.8L47.7518 3.096H46.5038L50.4238 10.984L50.0398 11.784C49.7358 12.44 49.4318 12.68 48.6318 12.68H47.4318V13.72H48.4238ZM59.8641 11V7.528H63.6561C65.9761 7.528 67.6081 6.2 67.6081 3.896C67.6081 1.608 65.9761 0.28 63.6561 0.28H58.7281V11H59.8641ZM63.5601 1.32C65.4481 1.32 66.4561 2.104 66.4561 3.896C66.4561 5.72 65.4481 6.488 63.5601 6.488H59.8641V1.32H63.5601ZM72.3895 11.16C74.9815 11.16 76.6935 9.448 76.6935 7.048C76.6935 4.648 74.9815 2.936 72.3895 2.936C69.8135 2.936 68.1015 4.648 68.1015 7.048C68.1015 9.448 69.8135 11.16 72.3895 11.16ZM72.3895 10.136C70.2135 10.136 69.2215 8.968 69.2215 7.048C69.2215 5.144 70.2135 3.96 72.3895 3.96C74.5655 3.96 75.5735 5.144 75.5735 7.048C75.5735 8.968 74.5655 10.136 72.3895 10.136ZM79.021 11V0.28H77.885V11H79.021ZM81.7479 2.088V0.28H80.6119V2.088H81.7479ZM81.7479 11V3.096H80.6119V11H81.7479ZM87.1148 11.16C89.3228 11.16 91.0508 9.848 91.0508 7.944V7.816H89.9308V7.912C89.9308 9.32 88.9068 10.12 87.0988 10.12C84.9868 10.12 84.0748 8.984 84.0748 7.048C84.0748 5.112 84.9868 3.976 87.0988 3.976C88.9068 3.976 89.9308 4.776 89.9308 6.184V6.28H91.0508V6.152C91.0508 4.248 89.3228 2.936 87.1148 2.936C84.5868 2.936 82.9388 4.648 82.9388 7.048C82.9388 9.448 84.5868 11.16 87.1148 11.16ZM93.2931 13.72C94.6051 13.72 95.3411 13.32 95.9171 12.104L100.205 3.096H98.9571L96.7651 7.784L95.9171 9.736H95.8211L94.9411 7.8L92.6211 3.096H91.3731L95.2931 10.984L94.9091 11.784C94.6051 12.44 94.3011 12.68 93.5011 12.68H92.3011V13.72H93.2931Z" fill="white"/>
</svg>
