<svg width="31" height="32" viewBox="0 0 31 32" fill="none" xmlns="http://www.w3.org/2000/svg">
<rect x="0.5" y="0.00012207" width="30" height="32" rx="15" fill="#858584"/>
<path d="M13.044 18.7361C13.044 19.4295 13.2573 19.9895 13.684 20.4161C14.1107 20.8321 14.7027 21.0401 15.46 21.0401C15.8227 21.0401 16.1533 20.9761 16.452 20.8481C16.7613 20.7201 17.0227 20.5388 17.236 20.3041C17.46 20.0588 17.6307 19.7761 17.748 19.4561C17.876 19.1255 17.94 18.7575 17.94 18.3521V16.6881H17.748C17.5027 17.1575 17.1507 17.5255 16.692 17.7921C16.2333 18.0588 15.7 18.1921 15.092 18.1921C14.5693 18.1921 14.0893 18.1121 13.652 17.9521C13.2147 17.7921 12.836 17.5575 12.516 17.2481C12.196 16.9281 11.9453 16.5441 11.764 16.0961C11.5933 15.6481 11.508 15.1361 11.508 14.5601V14.3681C11.508 13.8135 11.604 13.3068 11.796 12.8481C11.988 12.3788 12.2547 11.9788 12.596 11.6481C12.948 11.3068 13.3587 11.0455 13.828 10.8641C14.308 10.6721 14.8307 10.5761 15.396 10.5761C15.9613 10.5761 16.4787 10.6721 16.948 10.8641C17.428 11.0455 17.8387 11.3015 18.18 11.6321C18.532 11.9628 18.804 12.3575 18.996 12.8161C19.188 13.2748 19.284 13.7761 19.284 14.3201V18.3521C19.284 18.9495 19.1827 19.4881 18.98 19.9681C18.788 20.4375 18.516 20.8428 18.164 21.1841C17.8227 21.5148 17.4173 21.7708 16.948 21.9521C16.4787 22.1335 15.972 22.2241 15.428 22.2241C14.884 22.2241 14.3827 22.1441 13.924 21.9841C13.4653 21.8241 13.0707 21.5948 12.74 21.2961C12.4093 20.9868 12.1533 20.6188 11.972 20.1921C11.7907 19.7548 11.7 19.2695 11.7 18.7361H13.044ZM15.396 11.7601C15.012 11.7601 14.66 11.8241 14.34 11.9521C14.0307 12.0801 13.764 12.2615 13.54 12.4961C13.316 12.7308 13.1453 13.0081 13.028 13.3281C12.9107 13.6375 12.852 13.9735 12.852 14.3361V14.5281C12.852 14.9015 12.916 15.2428 13.044 15.5521C13.172 15.8508 13.348 16.1121 13.572 16.3361C13.796 16.5495 14.0627 16.7148 14.372 16.8321C14.6813 16.9495 15.0227 17.0081 15.396 17.0081C15.7587 17.0081 16.0947 16.9495 16.404 16.8321C16.7133 16.7041 16.98 16.5335 17.204 16.3201C17.4387 16.1068 17.62 15.8508 17.748 15.5521C17.876 15.2535 17.94 14.9335 17.94 14.5921V14.2881C17.94 13.9361 17.8813 13.6055 17.764 13.2961C17.6467 12.9868 17.476 12.7201 17.252 12.4961C17.028 12.2615 16.756 12.0801 16.436 11.9521C16.1267 11.8241 15.78 11.7601 15.396 11.7601Z" fill="white"/>
</svg>
