<svg width="32" height="33" viewBox="0 0 32 33" fill="none" xmlns="http://www.w3.org/2000/svg">
    <path fill-rule="evenodd" clip-rule="evenodd" d="M6 12.9163C6.55228 12.9163 7 13.364 7 13.9163V26.4663H25V13.9163C25 13.364 25.4477 12.9163 26 12.9163C26.5523 12.9163 27 13.364 27 13.9163V26.4663C27 26.9967 26.7893 27.5054 26.4142 27.8805C26.0391 28.2555 25.5304 28.4663 25 28.4663H7C6.46957 28.4663 5.96086 28.2555 5.58579 27.8805C5.21071 27.5054 5 26.9967 5 26.4663V13.9163C5 13.364 5.44772 12.9163 6 12.9163Z" fill="#B6747D"/>
    <path fill-rule="evenodd" clip-rule="evenodd" d="M3 5.46606C3 4.91378 3.44772 4.46606 4 4.46606H28C28.5523 4.46606 29 4.91378 29 5.46606C29 6.01835 28.5523 6.46606 28 6.46606H4C3.44772 6.46606 3 6.01835 3 5.46606Z" fill="#B6747D"/>
    <path fill-rule="evenodd" clip-rule="evenodd" d="M4 7.46606C4.55228 7.46606 5 7.91378 5 8.46606V10.4661C5 11.2617 5.31607 12.0248 5.87868 12.5874C6.44129 13.15 7.20435 13.4661 8 13.4661C8.79565 13.4661 9.55871 13.15 10.1213 12.5874C10.6839 12.0248 11 11.2617 11 10.4661V8.46606C11 7.91378 11.4477 7.46606 12 7.46606C12.5523 7.46606 13 7.91378 13 8.46606V10.4661C13 11.7921 12.4732 13.0639 11.5355 14.0016C10.5979 14.9393 9.32608 15.4661 8 15.4661C6.67392 15.4661 5.40215 14.9393 4.46447 14.0016C3.52678 13.0639 3 11.7921 3 10.4661V8.46606C3 7.91378 3.44772 7.46606 4 7.46606Z" fill="#B6747D"/>
    <path fill-rule="evenodd" clip-rule="evenodd" d="M12 7.46606C12.5523 7.46606 13 7.91378 13 8.46606V10.4661C13 11.2617 13.3161 12.0248 13.8787 12.5874C14.4413 13.15 15.2044 13.4661 16 13.4661C16.7956 13.4661 17.5587 13.15 18.1213 12.5874C18.6839 12.0248 19 11.2617 19 10.4661V8.46606C19 7.91378 19.4477 7.46606 20 7.46606C20.5523 7.46606 21 7.91378 21 8.46606V10.4661C21 11.7921 20.4732 13.0639 19.5355 14.0016C18.5979 14.9393 17.3261 15.4661 16 15.4661C14.6739 15.4661 13.4021 14.9393 12.4645 14.0016C11.5268 13.0639 11 11.7921 11 10.4661V8.46606C11 7.91378 11.4477 7.46606 12 7.46606Z" fill="#B6747D"/>
    <path fill-rule="evenodd" clip-rule="evenodd" d="M20 7.46606C20.5523 7.46606 21 7.91378 21 8.46606V10.4661C21 11.2617 21.3161 12.0248 21.8787 12.5874C22.4413 13.15 23.2044 13.4661 24 13.4661C24.7956 13.4661 25.5587 13.15 26.1213 12.5874C26.6839 12.0248 27 11.2617 27 10.4661V8.46606C27 7.91378 27.4477 7.46606 28 7.46606C28.5523 7.46606 29 7.91378 29 8.46606V10.4661C29 11.7921 28.4732 13.0639 27.5355 14.0016C26.5979 14.9393 25.3261 15.4661 24 15.4661C22.6739 15.4661 21.4021 14.9393 20.4645 14.0016C19.5268 13.0639 19 11.7921 19 10.4661V8.46606C19 7.91378 19.4477 7.46606 20 7.46606Z" fill="#B6747D"/>
</svg>
