<svg width="81" height="12" viewBox="0 0 81 12" fill="none" xmlns="http://www.w3.org/2000/svg">
<path d="M2.096 11V3.784L2.064 1.992H2.144L3.488 3.8L9.072 11H10.32V0.28H9.184V7.592L9.216 9.352H9.12L7.824 7.56L2.208 0.28H0.96V11H2.096ZM15.6656 11.16C17.8736 11.16 19.5056 10.024 19.5056 8.376V8.264H18.3696V8.376C18.3696 9.528 17.5056 10.216 15.6496 10.216C13.5536 10.216 12.6416 9.144 12.5776 7.368H19.5376C19.5856 7.16 19.6176 6.92 19.6176 6.632C19.6176 4.28 17.9696 2.936 15.6496 2.936C13.1056 2.936 11.5056 4.648 11.5056 7.048C11.5056 9.56 13.1216 11.16 15.6656 11.16ZM15.6336 3.88C17.4896 3.88 18.5456 4.76 18.5456 6.424C18.5456 6.504 18.5456 6.584 18.5456 6.664H12.5776C12.6576 4.936 13.5856 3.88 15.6336 3.88ZM23.9404 11L26.0204 5.832L26.6444 4.072H26.7244L27.3484 5.832L29.3964 11H30.8204L33.3804 3.096H32.2124L30.5164 8.328L30.1324 9.992H30.0364L29.4924 8.232L27.4284 3.096H25.9724L23.8924 8.232L23.3484 10.008H23.2524L22.8524 8.328L21.1724 3.096H20.0044L22.5324 11H23.9404ZM37.6439 11.16C39.6919 11.16 41.1639 10.376 41.1639 8.888C41.1639 7.608 40.2519 7.032 38.5559 6.792L36.6199 6.52C35.3079 6.328 34.8919 6.04 34.8919 5.224C34.8919 4.28 35.5799 3.88 37.2439 3.88C39.2599 3.88 39.8839 4.52 39.8839 5.704V5.784H41.0199V5.752C41.0199 3.896 39.5479 2.936 37.2759 2.936C35.0999 2.936 33.7719 3.816 33.7719 5.208C33.7719 6.52 34.6839 7.08 36.1239 7.272L38.2359 7.576C39.5479 7.784 40.0439 8.056 40.0439 8.888C40.0439 9.8 39.4359 10.216 37.6599 10.216C35.7239 10.216 34.9399 9.752 34.9399 8.424V8.328H33.8039V8.36C33.8039 10.184 35.2119 11.16 37.6439 11.16ZM43.4723 11V0.28H42.3363V11H43.4723ZM48.8231 11.16C51.0311 11.16 52.6631 10.024 52.6631 8.376V8.264H51.5271V8.376C51.5271 9.528 50.6631 10.216 48.8071 10.216C46.7111 10.216 45.7991 9.144 45.7351 7.368H52.6951C52.7431 7.16 52.7751 6.92 52.7751 6.632C52.7751 4.28 51.1271 2.936 48.8071 2.936C46.2631 2.936 44.6631 4.648 44.6631 7.048C44.6631 9.56 46.2791 11.16 48.8231 11.16ZM48.7911 3.88C50.6471 3.88 51.7031 4.76 51.7031 6.424C51.7031 6.504 51.7031 6.584 51.7031 6.664H45.7351C45.8151 4.936 46.7431 3.88 48.7911 3.88ZM58.8099 11V9.96H57.3699C56.2179 9.96 55.6739 9.656 55.6739 8.552V4.072H58.8099V3.096H55.6739V1.208H54.5219V3.096H53.1139V4.072H54.5219V8.488C54.5219 10.344 55.5299 11 57.0979 11H58.8099ZM64.5836 11V9.96H63.1436C61.9916 9.96 61.4476 9.656 61.4476 8.552V4.072H64.5836V3.096H61.4476V1.208H60.2956V3.096H58.8876V4.072H60.2956V8.488C60.2956 10.344 61.3036 11 62.8716 11H64.5836ZM69.2694 11.16C71.4774 11.16 73.1094 10.024 73.1094 8.376V8.264H71.9734V8.376C71.9734 9.528 71.1094 10.216 69.2534 10.216C67.1574 10.216 66.2454 9.144 66.1814 7.368H73.1414C73.1894 7.16 73.2214 6.92 73.2214 6.632C73.2214 4.28 71.5734 2.936 69.2534 2.936C66.7094 2.936 65.1094 4.648 65.1094 7.048C65.1094 9.56 66.7254 11.16 69.2694 11.16ZM69.2374 3.88C71.0934 3.88 72.1494 4.76 72.1494 6.424C72.1494 6.504 72.1494 6.584 72.1494 6.664H66.1814C66.2614 4.936 67.1894 3.88 69.2374 3.88ZM75.5441 11V6.712C75.5441 4.936 76.2481 3.928 77.8481 3.928C79.2241 3.928 79.7841 4.584 79.7841 5.928V6.536H80.9201V5.752C80.9201 4.28 80.1201 2.936 78.2961 2.936C76.6481 2.936 75.7521 3.992 75.5121 5.256H75.4321V3.096H74.4081V11H75.5441Z" fill="white"/>
</svg>
