<svg width="58" height="12" viewBox="0 0 58 12" fill="none" xmlns="http://www.w3.org/2000/svg">
<path d="M2.096 11V7.528H5.888C8.208 7.528 9.84 6.2 9.84 3.896C9.84 1.608 8.208 0.28 5.888 0.28H0.96V11H2.096ZM5.792 1.32C7.68 1.32 8.688 2.104 8.688 3.896C8.688 5.72 7.68 6.488 5.792 6.488H2.096V1.32H5.792ZM12.9414 11.16C14.7814 11.16 16.1734 10.328 16.6374 8.872H16.7174V11H17.7414V6.056C17.7414 4.312 16.7174 2.936 14.3174 2.936C11.8854 2.936 10.5094 4.296 10.5094 5.96V6.024H11.6454V5.96C11.6454 4.568 12.5414 3.96 14.2374 3.96C15.9654 3.96 16.6374 4.568 16.6374 6.104V6.712L12.8774 7.128C11.4054 7.288 10.3334 7.848 10.3334 9.144C10.3334 10.424 11.3894 11.16 12.9414 11.16ZM11.4694 9.064C11.4694 8.248 12.0454 7.96 13.2294 7.848L16.6374 7.464V7.528C16.6374 9.432 15.1174 10.28 13.1974 10.28C11.9974 10.28 11.4694 9.864 11.4694 9.064ZM20.4248 11V6.712C20.4248 4.936 21.1288 3.928 22.7288 3.928C24.1048 3.928 24.6648 4.584 24.6648 5.928V6.536H25.8008V5.752C25.8008 4.28 25.0008 2.936 23.1768 2.936C21.5288 2.936 20.6328 3.992 20.3928 5.256H20.3128V3.096H19.2888V11H20.4248ZM31.6449 11V9.96H30.2049C29.0529 9.96 28.5089 9.656 28.5089 8.552V4.072H31.6449V3.096H28.5089V1.208H27.3569V3.096H25.9489V4.072H27.3569V8.488C27.3569 10.344 28.3649 11 29.9329 11H31.6449ZM33.7066 11V7.176C33.7066 5.144 34.7146 3.976 36.6346 3.976C38.4426 3.976 39.2266 4.92 39.2266 6.552V11H40.3626V6.392C40.3626 4.52 39.2586 2.936 37.0346 2.936C35.0666 2.936 33.9466 4.232 33.6746 5.576H33.5946V3.096H32.5706V11H33.7066ZM45.6513 11.16C47.8593 11.16 49.4913 10.024 49.4913 8.376V8.264H48.3553V8.376C48.3553 9.528 47.4913 10.216 45.6353 10.216C43.5393 10.216 42.6273 9.144 42.5633 7.368H49.5233C49.5713 7.16 49.6033 6.92 49.6033 6.632C49.6033 4.28 47.9553 2.936 45.6353 2.936C43.0913 2.936 41.4913 4.648 41.4913 7.048C41.4913 9.56 43.1073 11.16 45.6513 11.16ZM45.6193 3.88C47.4753 3.88 48.5313 4.76 48.5313 6.424C48.5313 6.504 48.5313 6.584 48.5313 6.664H42.5633C42.6433 4.936 43.5713 3.88 45.6193 3.88ZM51.926 11V6.712C51.926 4.936 52.63 3.928 54.23 3.928C55.606 3.928 56.166 4.584 56.166 5.928V6.536H57.302V5.752C57.302 4.28 56.502 2.936 54.678 2.936C53.03 2.936 52.134 3.992 51.894 5.256H51.814V3.096H50.79V11H51.926Z" fill="white"/>
</svg>
